<svg width="24" height="24" viewBox="0 0 24 24" fill="none" xmlns="http://www.w3.org/2000/svg">
<path fill-rule="evenodd" clip-rule="evenodd" d="M11.8512 0C5.27881 0 0 5.32158 0 11.9502C0 16.8702 2.88841 20.9873 7.07161 22.8955C7.07161 20.6545 7.05599 20.9433 8.76359 13.6564C7.82519 11.7627 8.55481 8.63613 10.656 8.63613C13.572 8.63613 11.5908 12.9594 11.2536 14.6607C10.9548 15.9664 11.9508 16.9711 13.146 16.9711C15.4368 16.9711 16.9296 14.0583 16.9296 10.6447C16.9296 8.03344 15.138 6.12539 12.0504 6.12539C6.56041 6.12539 5.16841 12.2395 7.07161 14.1586C7.55041 14.8834 7.07161 14.9173 7.07161 15.866C6.73921 16.8691 4.0836 15.411 4.0836 11.649C4.0836 8.23428 6.8724 4.21816 12.5484 4.21816C17.0292 4.21816 20.0172 7.53151 20.0172 11.0467C20.0172 15.7659 17.4276 19.1807 13.644 19.1807C12.3492 19.1807 11.154 18.4771 10.7556 17.6736C10.032 20.4882 9.88559 21.9151 8.76359 23.4979C9.85919 23.7991 10.9548 24 12.15 24C18.7224 24 24 18.6784 24 12.051C23.7024 5.32193 18.4236 0 11.8512 0Z" fill="white"/>
</svg>
