<svg width="24" height="24" viewBox="0 0 24 24" fill="none" xmlns="http://www.w3.org/2000/svg">
<g clip-path="url(#clip0_2039_52)">
<mask id="mask0_2039_52" style="mask-type:luminance" maskUnits="userSpaceOnUse" x="0" y="0" width="24" height="24">
<path d="M24 0H0V24H24V0Z" fill="white"/>
</mask>
<g mask="url(#mask0_2039_52)">
<path d="M11.6804 0.320123C4.72706 0.683456 0.137054 6.13679 0.427054 13.0134C0.55372 16.0234 1.76372 18.6134 2.05039 21.4701C2.12372 22.2101 1.91039 23.1234 2.76372 23.4468C3.81372 23.8434 5.42372 23.1768 6.30372 22.5668C6.60372 22.3634 6.89039 22.1268 7.11039 21.8334C8.02039 22.4368 8.88372 23.0201 9.96706 23.2801C14.7371 24.4234 19.9637 21.8068 22.2871 17.6034C26.6537 9.70679 20.7504 -0.15321 11.6804 0.320123ZM8.98039 16.8001C8.60372 17.0934 8.24039 17.4934 7.82372 17.7234C7.22039 18.0468 7.03372 17.7101 6.80706 17.1768C6.09372 15.4801 6.00706 12.5901 6.42372 10.8134C6.98372 8.39679 8.85372 6.27012 11.4237 6.04345C14.0237 5.81345 16.4371 7.13345 17.5271 9.51679C19.9404 14.8201 13.7637 20.0568 8.98039 16.8034V16.8001Z" fill="#141413"/>
</g>
</g>
<defs>
<clipPath id="clip0_2039_52">
<rect width="24" height="24" fill="white"/>
</clipPath>
</defs>
</svg>
