<svg width="24" height="24" viewBox="0 0 24 24" fill="none" xmlns="http://www.w3.org/2000/svg">
<g clip-path="url(#clip0_100_2)">
<path d="M11.68 0.320001C4.72666 0.683334 0.136658 6.13667 0.426658 13.0133C0.553324 16.0233 1.76332 18.6133 2.04999 21.47C2.12332 22.21 1.90999 23.1233 2.76332 23.4467C3.81332 23.8433 5.42332 23.1767 6.30332 22.5667C6.60332 22.3633 6.88999 22.1267 7.10999 21.8333C8.01999 22.4367 8.88332 23.02 9.96666 23.28C14.7367 24.4233 19.9633 21.8067 22.2867 17.6033C26.6533 9.70667 20.75 -0.153332 11.68 0.320001ZM8.97999 16.8C8.60332 17.0933 8.23999 17.4933 7.82332 17.7233C7.21999 18.0467 7.03332 17.71 6.80666 17.1767C6.09332 15.48 6.00666 12.59 6.42332 10.8133C6.98332 8.39667 8.85332 6.27 11.4233 6.04333C14.0233 5.81333 16.4367 7.13333 17.5267 9.51667C19.94 14.82 13.7633 20.0567 8.97999 16.8033V16.8Z" fill="white"/>
</g>
<defs>
<clipPath id="clip0_100_2">
<rect width="24" height="24" fill="white"/>
</clipPath>
</defs>
</svg>
